<svg width="31" height="30" viewBox="0 0 31 30" fill="none" xmlns="http://www.w3.org/2000/svg">
<path d="M24.0058 26.0042H6.68972C4.48325 26.0048 2.69454 27.7936 2.69385 30H28.0017C28.0017 27.7929 26.213 26.0042 24.0058 26.0042Z" fill="black"/>
<path d="M15.3485 7.35675C10.6856 7.35675 7.35675 10.6863 7.35675 15.5769V24.6116H23.3402V15.5769C23.3402 10.6863 20.0135 7.35675 15.3485 7.35675V7.35675ZM20.6791 17.3767C20.2948 17.3767 19.9828 17.0648 19.9828 16.6804C19.9828 14.1822 18.756 11.8894 17.1281 11.3477C16.7626 11.2259 16.5649 10.8318 16.6867 10.4663C16.8086 10.1007 17.2026 9.90299 17.5682 10.0248C19.774 10.7608 21.3754 13.5598 21.3754 16.6804C21.3754 17.0648 21.0634 17.3767 20.6791 17.3767Z" fill="black"/>
<path d="M4.69213 16.0448H0.696266C0.311927 16.0448 0 15.7328 0 15.3485C0 14.9641 0.311927 14.6522 0.696266 14.6522H4.69213C5.07647 14.6522 5.3884 14.9641 5.3884 15.3485C5.3884 15.7328 5.07647 16.0448 4.69213 16.0448Z" fill="black"/>
<path d="M7.30033 8.33707C7.11582 8.33707 6.93828 8.26396 6.80807 8.13307L4.14416 5.46846C3.8768 5.19204 3.88446 4.7513 4.16157 4.48394C4.43172 4.22353 4.85923 4.22353 5.12868 4.48394L7.79259 7.14855C8.06414 7.42079 8.06414 7.86152 7.79259 8.13307C7.6617 8.26396 7.48484 8.33707 7.30033 8.33707V8.33707Z" fill="black"/>
<path d="M15.3485 5.3884C14.9641 5.3884 14.6522 5.07647 14.6522 4.69213V0.696266C14.6522 0.311927 14.9641 0 15.3485 0C15.7328 0 16.0448 0.311927 16.0448 0.696266V4.69213C16.0448 5.07647 15.7328 5.3884 15.3485 5.3884Z" fill="black"/>
<path d="M23.547 8.18598C23.1627 8.18598 22.8507 7.87405 22.8507 7.48971C22.8507 7.3052 22.9238 7.12835 23.0547 6.99745L25.7187 4.33354C25.9902 4.0613 26.4316 4.0613 26.7039 4.33284C26.9761 4.60439 26.9761 5.04582 26.7039 5.31806L24.0393 7.98197C23.9091 8.11287 23.7315 8.18598 23.547 8.18598V8.18598Z" fill="black"/>
<path d="M30.0007 16.0448H26.0048C25.6205 16.0448 25.3086 15.7328 25.3086 15.3485C25.3086 14.9641 25.6205 14.6522 26.0048 14.6522H30.0007C30.385 14.6522 30.697 14.9641 30.697 15.3485C30.697 15.7328 30.385 16.0448 30.0007 16.0448Z" fill="black"/>
</svg>
