<svg width="31" height="30" viewBox="0 0 31 30" fill="none" xmlns="http://www.w3.org/2000/svg">
<path d="M22.6244 16.7268L19.661 15.1171L16.0976 30H24.1464V19.2951C24.1465 18.7698 24.0053 18.2542 23.7375 17.8023C23.4697 17.3504 23.0852 16.979 22.6244 16.7268V16.7268Z" fill="black"/>
<path d="M10.9756 3.65854C10.9756 2.93495 10.7611 2.22761 10.3591 1.62596C9.95706 1.02432 9.38568 0.555397 8.71717 0.278491C8.04866 0.00158519 7.31305 -0.070866 6.60336 0.0702994C5.89368 0.211465 5.24179 0.559907 4.73013 1.07156C4.21848 1.58322 3.87003 2.23511 3.72887 2.94479C3.5877 3.65448 3.66015 4.39009 3.93706 5.0586C4.21397 5.72711 4.68289 6.29849 5.28453 6.7005C5.88618 7.1025 6.59352 7.31707 7.31711 7.31707C8.09168 7.30919 8.84324 7.05269 9.46101 6.58537C9.79385 5.9039 10.2419 5.28504 10.7854 4.7561C10.908 4.40301 10.9723 4.0323 10.9756 3.65854V3.65854Z" fill="black"/>
<path d="M15.3659 14.6342C18.1947 14.6342 20.4879 12.341 20.4879 9.51221C20.4879 6.68343 18.1947 4.39026 15.3659 4.39026C12.5371 4.39026 10.244 6.68343 10.244 9.51221C10.244 12.341 12.5371 14.6342 15.3659 14.6342Z" fill="black"/>
<path d="M27.0732 3.65854C27.0732 2.68823 26.6878 1.75767 26.0016 1.07156C25.3155 0.385452 24.385 0 23.4147 0C22.4444 0 21.5138 0.385452 20.8277 1.07156C20.1416 1.75767 19.7561 2.68823 19.7561 3.65854C19.7563 4.04213 19.8206 4.42299 19.9464 4.78537C20.4872 5.30553 20.9351 5.9143 21.2708 6.58537C21.8885 7.05269 22.6401 7.30919 23.4147 7.31707C23.8951 7.31707 24.3709 7.22244 24.8147 7.03858C25.2586 6.85472 25.6619 6.58524 26.0016 6.24551C26.3414 5.90579 26.6109 5.50247 26.7947 5.0586C26.9786 4.61472 27.0732 4.13898 27.0732 3.65854Z" fill="black"/>
<path d="M8.78053 9.51219C8.78129 9.18617 8.80821 8.86073 8.86102 8.53902C8.36151 8.69689 7.84099 8.77829 7.31712 8.78048C6.271 8.78165 5.2496 8.46246 4.39029 7.86584L1.90249 8.78048C1.34111 8.99021 0.857653 9.36722 0.517426 9.86055C0.177199 10.3539 -0.00339399 10.9398 4.83102e-05 11.539V21.9512H5.122V19.2951C5.12319 18.5071 5.33646 17.7339 5.73943 17.0567C6.1424 16.3795 6.72022 15.8233 7.41224 15.4463L10.3903 13.8146C9.35468 12.6202 8.78331 11.0931 8.78053 9.51219Z" fill="black"/>
<path d="M28.8293 8.78048L26.3415 7.86584C25.4822 8.46246 24.4608 8.78165 23.4147 8.78048C22.8908 8.77829 22.3703 8.69689 21.8708 8.53902C21.9236 8.86073 21.9505 9.18617 21.9513 9.51219C21.9485 11.0931 21.3771 12.6202 20.3415 13.8146L23.3196 15.4463C24.0116 15.8233 24.5894 16.3795 24.9924 17.0567C25.3954 17.7339 25.6086 18.5071 25.6098 19.2951V21.9512H30.7318V11.539C30.7352 10.9398 30.5546 10.3539 30.2144 9.86055C29.8742 9.36722 29.3907 8.99021 28.8293 8.78048V8.78048Z" fill="black"/>
<path d="M16.0976 17.561V23.7659L15.3659 26.839L14.6342 23.7659V17.561C14.6342 17.3669 14.7113 17.1808 14.8485 17.0436C14.9857 16.9064 15.1718 16.8293 15.3659 16.8293C15.56 16.8293 15.7461 16.9064 15.8833 17.0436C16.0205 17.1808 16.0976 17.3669 16.0976 17.561Z" fill="black"/>
<path d="M16.0976 17.561V23.7659L15.3659 26.839L14.6342 23.7659V17.561C14.6342 17.3669 14.7113 17.1808 14.8485 17.0436C14.9857 16.9064 15.1718 16.8293 15.3659 16.8293C15.56 16.8293 15.7461 16.9064 15.8833 17.0436C16.0205 17.1808 16.0976 17.3669 16.0976 17.561Z" fill="black"/>
<path d="M8.10737 16.7268C7.64657 16.979 7.26211 17.3504 6.99432 17.8023C6.72654 18.2542 6.5853 18.7698 6.58542 19.2951V30H14.6342L11.0708 15.1171L8.10737 16.7268Z" fill="black"/>
</svg>
