<svg width="45" height="45" viewBox="0 0 45 45" fill="none" xmlns="http://www.w3.org/2000/svg">
<rect width="45" height="45" fill="#F1B43D"/>
<path d="M36.4409 8.85642C32.6323 5.0478 26.4352 5.04793 22.6266 8.85642C19.8344 11.6487 19.0119 15.8175 20.4774 19.4311L5.39999 34.4628V39.6H11.0164L12.0537 36.615L14.868 35.6979L15.7691 32.9318L18.452 32.2328L25.8652 24.8195C29.4793 26.2857 33.6484 25.4633 36.441 22.6707C40.2495 18.8621 40.2495 12.665 36.4409 8.85642V8.85642ZM31.9778 15.7282C30.4862 15.7282 29.2727 14.5147 29.2727 13.0231C29.2727 11.5315 30.4863 10.3181 31.9778 10.3181C33.4695 10.3181 34.6829 11.5316 34.6829 13.0231C34.6829 14.5148 33.4694 15.7282 31.9778 15.7282Z" fill="white"/>
</svg>
