<svg width="45" height="45" viewBox="0 0 45 45" fill="none" xmlns="http://www.w3.org/2000/svg">
<rect width="45" height="45" fill="#ED2C43"/>
<path d="M16.9235 6.89442L20.1931 21.0621H32.3586C33.3184 21.0621 34.0966 21.8402 34.0966 22.8V23.9586H17.8759L14.6659 7.3736C14.6006 7.03529 14.6897 6.68567 14.9089 6.41977C15.1281 6.15416 15.4545 6.00028 15.7991 6C16.3365 5.99972 16.803 6.37084 16.9235 6.89442V6.89442Z" fill="white"/>
<path d="M31.2 23.9586H34.0966V39.6H32.3586L31.2 23.9586Z" fill="white"/>
<path d="M20.7724 23.9586H17.8759L14.4 39.6H16.1379L20.7724 23.9586Z" fill="white"/>
<path d="M18.6781 31.3312H32.685L32.9153 32.25H17.7559L18.6781 31.3312Z" fill="white"/>
</svg>
