<svg width="68" height="30" viewBox="0 0 68 30" fill="none" xmlns="http://www.w3.org/2000/svg">
<path d="M46.0647 7.33561C45.8197 4.94088 45.4295 3.07634 44.8122 2.34346C42.2669 -0.669919 24.4375 -0.890443 22.4132 2.34346C21.918 3.13576 21.5707 4.9937 21.3377 7.33957C20.5856 7.42804 20 8.06122 20 8.83636V11.7698C20 12.4222 20.4133 12.9722 20.9904 13.1867C20.8537 17.8072 20.9646 22.6277 21.1693 25.025C21.1693 26.8757 22.4126 26.5687 22.4126 26.5687H23.5779V28.5666C23.5779 29.3589 24.3946 30 25.4008 30C26.4084 30 27.2251 29.3589 27.2251 28.5666V26.5687H40.7827V28.5666C40.7827 29.3589 41.5987 30 42.6063 30C43.6125 30 44.4292 29.3589 44.4292 28.5666V26.5687H44.8122C44.8122 26.5687 46.2753 26.7694 46.3691 25.8979C46.3691 23.5071 46.5196 18.2086 46.3955 13.2072C47.0088 13.0151 47.4565 12.4499 47.4565 11.7698V8.83636C47.4571 8.04274 46.8431 7.39899 46.0647 7.33561ZM26.7676 2.77328H40.4578V4.84449H26.7676V2.77328ZM26.963 24.2096C25.8881 24.2096 25.0172 23.3381 25.0172 22.2632C25.0172 21.189 25.8881 20.3181 26.963 20.3181C28.0379 20.3181 28.9094 21.189 28.9094 22.2632C28.9094 23.3381 28.0385 24.2096 26.963 24.2096ZM40.3845 24.2096C39.3103 24.2096 38.4375 23.3381 38.4375 22.2632C38.4375 21.189 39.3097 20.3181 40.3845 20.3181C41.4594 20.3181 42.3303 21.189 42.3303 22.2632C42.331 23.3381 41.4594 24.2096 40.3845 24.2096ZM42.8585 15.6924H24.3669V5.99332H42.8585V15.6924Z" fill="black"/>
<line x1="50.8131" y1="17.8339" x2="58.8131" y2="8.83391" stroke="black" stroke-width="0.5"/>
<line x1="52.8411" y1="18.7452" x2="58.8411" y2="13.807" stroke="black" stroke-width="0.5"/>
<line x1="53.8809" y1="20.519" x2="64.467" y2="14.7802" stroke="black" stroke-width="0.5"/>
<path d="M57.7991 9.08059C58.2516 7.22543 59.9488 4.43229 63.1173 8.10097C64.4609 8.09787 66.9399 8.75319 66.1076 11.3992C66.9986 13.2513 67.7805 16.6998 63.7797 15.6771" stroke="black" stroke-width="0.570023"/>
<line y1="-0.25" x2="12.0416" y2="-0.25" transform="matrix(-0.664364 -0.747409 -0.747409 0.664364 16.8036 19)" stroke="black" stroke-width="0.5"/>
<line y1="-0.25" x2="7.77085" y2="-0.25" transform="matrix(-0.772116 -0.635481 -0.635481 0.772116 14.8036 19.9382)" stroke="black" stroke-width="0.5"/>
<line y1="-0.25" x2="12.0416" y2="-0.25" transform="matrix(-0.879133 -0.476577 -0.476577 0.879133 13.8036 21.7388)" stroke="black" stroke-width="0.5"/>
<path d="M10.0045 10.0806C9.55196 8.22543 7.85476 5.43229 4.68625 9.10097C3.3427 9.09787 0.86366 9.75319 1.69594 12.3992C0.804926 14.2513 0.0230884 17.6998 4.02388 16.6771" stroke="black" stroke-width="0.570023"/>
</svg>
